<svg xmlns:xlink="http://www.w3.org/1999/xlink" width="250" xmlns="http://www.w3.org/2000/svg" viewBox="0 0 250 250" height="250"><defs/><g transform="translate(-177.43,-177.33)"><path transform="translate(177.434783,177.333333)" id="shape1" d="M.0,125.0C.0,56.0,56.0,.0,125.0,.0C194.0,.0,250.0,56.0,250.0,125.0C250.0,194.0,194.0,250.0,125.0,250.0C56.0,250.0,.0,194.0,.0,125.0z" fill="#ffffff" fill-rule="nonzero"/><path transform="translate(188.869565,188.768116)" id="shape2" d="M.0,113.6C.0,50.8,50.8,.0,113.6,.0C176.3,.0,227.1,50.8,227.1,113.6C227.1,176.3,176.3,227.1,113.6,227.1C50.8,227.1,.0,176.3,.0,113.6zM113.5,170.1C115.8,170.1,118.0,169.7,120.3,169.4C121.7,169.2,124.0,166.7,124.4,165.3C125.7,161.5,125.2,162.6,125.6,157.4C126.3,148.4,129.2,137.4,134.0,132.6C138.9,127.9,150.2,126.6,158.6,125.6C163.8,125.0,162.2,125.2,165.4,124.7C168.5,124.2,169.6,121.3,169.8,119.0C170.0,117.2,170.1,115.4,170.1,113.6C170.1,82.3,144.7,57.0,113.5,57.0C82.2,57.0,56.9,82.3,56.9,113.6C56.9,144.8,82.2,170.1,113.5,170.1z" fill="#2965ff" fill-rule="nonzero"/></g></svg>